# Blender 4.0.2
# www.blender.org
mtllib cislo5-1.mtl
o Text
v 0.015803 0.481900 -0.229406
v -0.274321 0.484977 -0.142072
v -0.188203 0.396289 -0.161640
v 0.016704 0.394116 -0.223322
v 0.110625 0.504650 0.084791
v -0.179500 0.507727 0.172125
v -0.093381 0.419039 0.152557
v 0.111526 0.416866 0.090875
v 0.110625 0.504650 0.084791
v -0.179500 0.507727 0.172125
v -0.093381 0.419039 0.152557
v 0.111526 0.416866 0.090875
v -0.272880 0.344480 -0.132334
v -0.177754 0.337609 0.183916
v -0.177754 0.337609 0.183916
v -0.119098 0.336279 0.166310
v -0.092526 0.335677 0.158335
v -0.092526 0.335677 0.158335
v -0.187651 0.342548 -0.157915
v -0.204782 0.342937 -0.152774
vn -0.2882 -0.0692 -0.9551
vn -0.0000 1.0000 -0.0000
vn 0.9575 -0.0102 -0.2882
vn 0.0102 -0.9976 0.0691
vn -0.0102 0.9976 -0.0691
vn 0.2882 0.0692 0.9551
vn -0.9575 0.0102 0.2882
vn -0.0268 -0.9995 -0.0137
vt -0.156528 0.000000
vt 0.024469 0.000000
vt -2.989664 0.000000
vt -2.475545 0.000000
vt 3.544535 0.000000
vt 0.977812 0.000000
vt -2.936774 0.000000
vt 0.994300 0.000000
vt 0.964000 0.000000
vt -2.989664 0.000000
vt -2.907622 0.000000
vt 1.791198 0.000000
vt 0.026564 0.000000
vt -0.250575 0.000000
vt 3.544537 0.000000
vt 2.772269 0.000000
vt 4.544538 0.000000
vt -3.270575 0.000000
vt -1.999205 0.000000
vt -0.006310 0.000000
s 0
f 13/1/1 2/2/1 3/3/1 20/4/1
f 3/3/1 2/2/1 1/5/1
f 3/3/1 1/5/1 4/6/1
f 20/4/1 3/3/1 19/7/1
f 18/8/2 7/9/2 11/10/2 17/11/2
f 5/12/2 6/13/2 10/14/2 9/15/2
f 8/16/2 5/12/2 9/15/2 12/17/2
f 7/9/2 8/16/2 12/17/2 11/10/2
f 19/7/3 3/3/3 7/9/3 18/8/3
f 3/3/4 4/6/4 8/16/4 7/9/4
f 4/6/3 1/5/3 5/12/3 8/16/3
f 1/5/5 2/2/5 6/13/5 5/12/5
f 16/18/6 11/10/6 10/14/6 15/19/6
f 11/10/6 9/15/6 10/14/6
f 11/10/6 12/17/6 9/15/6
f 16/18/6 17/11/6 11/10/6
f 6/13/2 14/20/2 15/19/2 10/14/2
f 2/2/7 13/1/7 14/20/7 6/13/7
f 16/18/8 15/19/8 14/20/8 13/1/8 20/4/8 19/7/8 18/8/8 17/11/8
