# Blender 4.0.2
# www.blender.org
mtllib cislo5-4.mtl
o Text.001
v -0.092486 -0.322682 -0.155491
v -0.084109 -0.315011 -0.158514
v -0.106769 -0.331419 -0.150548
v 0.002336 -0.299932 0.158706
v -0.057413 -0.327144 -0.165692
v -0.041531 -0.334362 -0.169963
v -0.034038 -0.337767 -0.171978
v -0.122267 -0.338440 -0.145363
v 0.011644 -0.358528 -0.184261
v 0.011796 -0.360202 -0.184246
v 0.117195 -0.319029 0.125486
v 0.106618 -0.337452 0.129951
v 0.117195 -0.319029 0.125486
v 0.106618 -0.337452 0.129951
v 0.107602 -0.314670 0.128065
v -0.027445 -0.315689 0.168834
v 0.106029 -0.313955 0.128488
v -0.011947 -0.308669 0.163649
v 0.102694 -0.312439 0.129385
v 0.002336 -0.299932 0.158706
v 0.093812 -0.308403 0.131773
v 0.015236 -0.289632 0.154067
v 0.089966 -0.306655 0.132807
v 0.050835 -0.289585 0.143320
v 0.052373 -0.289571 0.142915
v 0.027145 -0.278105 0.149699
v 0.026587 -0.277923 0.149793
v 0.025711 -0.277453 0.150084
v 0.025711 -0.277453 0.150084
v 0.026587 -0.277923 0.149793
v 0.022677 -0.278558 0.141300
v 0.022266 -0.278700 0.140138
v 0.025626 -0.278914 0.150155
v 0.089966 -0.306655 0.132807
v -0.062636 -0.308013 -0.099508
v 0.015236 -0.289632 0.154067
v 0.025626 -0.278914 0.150155
v -0.011947 -0.308669 0.163649
v -0.027445 -0.315689 0.168834
v -0.043989 -0.320839 0.174200
v -0.061411 -0.323963 0.179684
v -0.043989 -0.320839 0.174200
v -0.138811 -0.343589 -0.139997
v -0.156233 -0.346713 -0.134513
v -0.174366 -0.347659 -0.128972
v -0.186337 -0.347179 -0.125394
v -0.316512 -0.397021 -0.082499
v -0.079544 -0.324909 0.185225
v -0.091516 -0.324429 0.188803
v -0.079544 -0.324909 0.185225
v -0.091516 -0.324429 0.188803
v -0.061411 -0.323963 0.179684
v -0.221690 -0.374271 0.231698
v -0.221690 -0.374271 0.231698
v -0.222724 -0.273518 0.224714
v -0.115468 -0.321364 0.195810
v -0.139409 -0.315515 0.202611
v -0.163311 -0.306909 0.209202
v -0.187149 -0.295574 0.215575
v -0.210894 -0.281539 0.221725
v -0.207720 -0.381530 0.228007
v 0.046691 -0.390564 0.151882
v 0.069138 -0.375639 0.144027
v 0.089178 -0.357868 0.136693
v -0.103491 -0.323246 0.192332
v -0.127441 -0.318786 0.199236
v -0.151366 -0.311554 0.205933
v -0.175240 -0.301581 0.212416
v -0.199035 -0.288893 0.218678
v -0.199035 -0.288893 0.218678
v -0.210894 -0.281539 0.221725
v -0.187149 -0.295574 0.215575
v -0.293856 -0.311643 -0.095519
v -0.305716 -0.304290 -0.092472
v -0.281970 -0.318324 -0.098622
v -0.270061 -0.324331 -0.101781
v -0.258133 -0.329659 -0.104995
v -0.175240 -0.301581 0.212416
v -0.163311 -0.306909 0.209202
v -0.151366 -0.311554 0.205933
v -0.139409 -0.315515 0.202611
v -0.246188 -0.334304 -0.108264
v -0.234230 -0.338265 -0.111586
v -0.222263 -0.341536 -0.114960
v -0.210290 -0.344114 -0.118387
v -0.127441 -0.318786 0.199236
v -0.115468 -0.321364 0.195810
v -0.103491 -0.323246 0.192332
v -0.198313 -0.345996 -0.121865
v -0.317546 -0.296268 -0.089483
v -0.222724 -0.273518 0.224714
v 0.089178 -0.357868 0.136693
v 0.069138 -0.375639 0.144027
v -0.005644 -0.380618 -0.177504
v -0.025684 -0.398389 -0.170170
v -0.048130 -0.413314 -0.162315
v -0.302542 -0.404280 -0.086190
v -0.072788 -0.425197 -0.154013
v -0.288978 -0.410806 -0.089811
v 0.046691 -0.390564 0.151882
v 0.022033 -0.402446 0.160184
v -0.004643 -0.411086 0.168860
v 0.022033 -0.402446 0.160184
v -0.180919 -0.393873 0.220813
v -0.155104 -0.403463 0.213716
v -0.004643 -0.411086 0.168860
v -0.194157 -0.388056 0.224386
v -0.167928 -0.399002 0.217263
v -0.167928 -0.399002 0.217263
v -0.180919 -0.393873 0.220813
v -0.155104 -0.403463 0.213716
v -0.262750 -0.421752 -0.096934
v -0.275741 -0.416623 -0.093384
v -0.249926 -0.426213 -0.100481
v -0.237188 -0.430030 -0.104049
v -0.099464 -0.433836 -0.145337
v -0.224456 -0.433223 -0.107660
v -0.127964 -0.439035 -0.136359
v -0.198692 -0.437826 -0.115102
v -0.211651 -0.435815 -0.111337
v -0.185500 -0.439278 -0.118978
v -0.158094 -0.440594 -0.127154
v -0.033142 -0.416285 0.177838
v -0.033142 -0.416285 0.177838
v -0.063272 -0.417844 0.187043
v -0.077172 -0.417444 0.191209
v -0.063272 -0.417844 0.187043
v -0.077172 -0.417444 0.191209
v -0.090678 -0.416528 0.195219
v -0.090678 -0.416528 0.195219
v -0.103870 -0.415075 0.199095
v -0.103870 -0.415075 0.199095
v -0.116829 -0.413064 0.202860
v -0.116829 -0.413064 0.202860
v -0.129634 -0.410473 0.206537
v -0.129634 -0.410473 0.206537
v -0.142366 -0.407280 0.210148
v -0.142366 -0.407280 0.210148
v -0.171993 -0.440194 -0.122988
v -0.194157 -0.388056 0.224386
v -0.207720 -0.381530 0.228007
vn -0.2862 -0.0642 -0.9560
vn -0.6134 0.7789 0.1304
vn -0.2872 -0.0691 -0.9554
vn -0.4976 0.8630 0.0877
vn 0.3492 0.9072 -0.2347
vn -0.2875 -0.0697 -0.9552
vn -0.2872 -0.0642 -0.9557
vn 0.8443 -0.4876 -0.2225
vn -0.0000 1.0000 -0.0000
vn 0.2879 0.0667 0.9554
vn 0.2878 0.0700 0.9551
vn 0.2878 0.0697 0.9552
vn 0.2877 0.0693 0.9552
vn 0.2880 0.0719 0.9549
vn 0.2546 -0.0119 0.9670
vn 0.2665 0.0176 0.9637
vn -0.0652 -0.6105 0.7893
vn -0.3929 -0.8858 0.2470
vn -0.7005 0.6647 0.2599
vn -0.3699 -0.9232 0.1044
vn -0.7133 0.6792 0.1730
vn 0.2882 0.0692 0.9551
vn -0.3971 0.9162 0.0535
vn -0.2916 0.9564 0.0188
vn -0.1815 0.9833 -0.0164
vn -0.2882 -0.0691 -0.9551
vn -0.2882 -0.0692 -0.9551
vn -0.0677 0.9964 -0.0517
vn 0.0168 0.9969 -0.0773
vn 0.2882 0.0691 0.9551
vn 0.4769 0.8545 -0.2058
vn 0.4410 0.8757 -0.1965
vn 0.4026 0.8962 -0.1864
vn 0.3617 0.9156 -0.1755
vn 0.3184 0.9337 -0.1637
vn 0.2727 0.9502 -0.1511
vn 0.2248 0.9646 -0.1377
vn 0.1750 0.9768 -0.1235
vn 0.1235 0.9864 -0.1087
vn 0.0706 0.9931 -0.0932
vn 0.5105 0.8327 -0.2144
vn -0.9575 0.0102 0.2882
vn 0.6294 -0.7653 -0.1345
vn 0.7212 -0.6718 -0.1690
vn 0.5271 -0.8442 -0.0979
vn 0.4168 -0.9070 -0.0601
vn 0.3016 -0.9532 -0.0220
vn -0.3229 -0.9320 0.1649
vn -0.2862 -0.9456 0.1548
vn -0.2468 -0.9583 0.1439
vn 0.1842 -0.9828 0.0156
vn 0.0674 -0.9964 0.0518
vn -0.0065 -0.9972 0.0742
vn -0.2057 -0.9696 0.1323
vn -0.1636 -0.9792 0.1203
vn -0.1217 -0.9867 0.1082
vn -0.0809 -0.9921 0.0963
vn -0.0423 -0.9955 0.0848
vn -0.3564 -0.9180 0.1740
vn -0.3865 -0.9041 0.1821
vn -0.4129 -0.8909 0.1891
vt 0.625796 0.000000
vt 0.624590 0.000000
vt 0.471891 0.000000
vt 0.631479 0.000000
vt 0.627102 0.000000
vt 0.624735 0.000000
vt 1.936987 0.000000
vt 1.031249 0.000000
vt 0.630705 0.000000
vt -0.021699 0.000000
vt 0.616384 0.000000
vt 0.360792 0.000000
vt 0.371318 0.000000
vt -0.628546 0.000000
vt 0.993132 0.000000
vt 1.171634 0.000000
vt 1.643165 0.000000
vt 2.301469 0.000000
vt 0.361897 0.000000
vt 0.132386 0.000000
vt 0.249232 0.000000
vt 0.554923 0.000000
vt 1.008319 0.000000
vt -0.147821 0.000000
vt 2.346915 0.000000
vt 0.588944 0.000000
vt 0.532793 0.000000
vt 0.494308 0.000000
vt 2.346898 0.000000
vt 1.936988 0.000000
vt 1.257205 0.000000
vt 0.790461 0.000000
vt -0.640711 0.000000
vt 0.382349 0.000000
vt 0.383454 0.000000
vt 0.617035 0.000000
vt -0.110182 0.000000
vt 0.135374 0.000000
vt 0.625321 0.000000
vt 0.615598 0.000000
vt 3.708479 0.000000
vt 3.708472 0.000000
vt 7.760005 0.000000
vt 0.601706 0.000000
vt 7.759892 0.000000
vt 2.526124 0.000000
vt 0.654128 0.000000
vt 0.812852 0.000000
vt 0.710754 0.000000
vt 0.354050 0.000000
vt 0.812846 0.000000
vt 2.308059 0.000000
vt 0.940105 0.000000
vt 0.574643 0.000000
vt 0.450451 0.000000
vt 0.951175 0.000000
vt 0.358036 0.000000
vt 0.366639 0.000000
vt 0.938189 0.000000
vt 0.820246 0.000000
vt 0.829539 0.000000
vt 0.840125 0.000000
vt 0.851676 0.000000
vt 0.863997 0.000000
vt 0.877594 0.000000
vt 0.891785 0.000000
vt 0.906581 0.000000
vt 0.922028 0.000000
vt 0.544584 0.000000
vt 0.511203 0.000000
vt 0.488707 0.000000
vt 0.619742 0.000000
vt 0.612329 0.000000
vt 0.628321 0.000000
vt 0.922029 0.000000
vt 0.938187 0.000000
vt 0.891785 0.000000
vt 0.637931 0.000000
vt 0.877595 0.000000
vt 0.648382 0.000000
vt 0.863998 0.000000
vt 0.659421 0.000000
vt 0.851011 0.000000
vt 0.670733 0.000000
vt 0.840125 0.000000
vt 0.681953 0.000000
vt 0.829538 0.000000
vt 0.692660 0.000000
vt 0.702409 0.000000
vt 0.820244 0.000000
vt 0.533865 0.000000
vt 0.515557 0.000000
vt 0.504202 0.000000
vt 0.506479 0.000000
vt 0.514912 0.000000
vt 0.503408 0.000000
vt 0.498449 0.000000
vt 0.362022 0.000000
vt 0.367037 0.000000
vt 0.504898 0.000000
vt 0.497659 0.000000
vt 0.595832 0.000000
vt 0.513986 0.000000
vt 0.500916 0.000000
vt 0.686112 0.000000
vt 0.509321 0.000000
vt 0.457137 0.000000
vt 0.409262 0.000000
vt 0.564542 0.000000
vt 0.337033 0.000000
vt 0.328974 0.000000
vt 0.345038 0.000000
vt 0.355412 0.000000
vt 0.347651 0.000000
vt 0.339403 0.000000
vt 0.375424 0.000000
vt 0.321775 0.000000
vt 0.362337 0.000000
vt 0.578412 0.000000
vt 0.507140 0.000000
vt 0.363585 0.000000
vt 0.376205 0.000000
vt 0.367906 0.000000
vt 0.342750 0.000000
vt 0.422270 0.000000
vt 1.471882 0.000000
vt 0.561218 0.000000
vt 0.329371 0.000000
vt 0.328283 0.000000
vt 0.548218 0.000000
vt 1.595562 0.000000
vt 0.319474 0.000000
vt 0.314691 0.000000
vt 1.216064 0.000000
vt 0.313817 0.000000
vt 0.966888 0.000000
vt 0.316419 0.000000
vt 0.797485 0.000000
vt 0.638387 0.000000
vt 0.352224 0.000000
s 0
f 1/1/1 2/2/1 5/3/1
f 2/2/2 1/1/2 4/4/2 36/5/2 35/6/2
f 3/7/3 1/1/3 5/3/3 6/8/3
f 1/1/4 3/7/4 38/9/4 4/4/4
f 31/10/5 29/11/5 28/12/5 26/13/5 25/14/5 23/15/5 21/16/5 19/17/5 17/18/5 15/19/5 13/20/5 11/21/5 9/22/5 7/23/5 6/8/5 5/3/5 2/2/5 35/6/5 32/24/5
f 8/25/6 3/7/6 6/8/6 7/23/6
f 8/25/7 7/23/7 9/22/7 10/26/7
f 10/26/8 9/22/8 11/21/8 12/27/8
f 12/27/9 11/21/9 13/20/9 14/28/9
f 16/29/10 14/28/10 13/20/10 15/19/10
f 16/29/11 15/19/11 17/18/11 18/30/11
f 18/30/12 17/18/12 19/17/12 20/31/12
f 20/31/13 19/17/13 21/16/13 22/32/13
f 22/32/14 21/16/14 23/15/14 24/33/14
f 23/15/15 25/14/15 24/33/15
f 24/33/16 25/14/16 26/13/16 27/34/16 37/35/16
f 27/34/17 26/13/17 28/12/17
f 29/11/9 30/36/9 27/34/9 28/12/9
f 29/11/18 31/10/18 30/36/18
f 32/24/19 33/37/19 30/36/19 31/10/19
f 32/24/20 34/38/20 33/37/20
f 32/24/21 35/6/21 36/5/21 33/37/21
f 36/5/9 4/4/9 20/31/9 22/32/9
f 33/37/9 36/5/9 22/32/9 37/35/9
f 30/36/9 33/37/9 37/35/9 27/34/9
f 22/32/22 24/33/22 37/35/22
f 4/4/9 38/9/9 18/30/9 20/31/9
f 38/9/9 39/39/9 16/29/9 18/30/9
f 3/7/23 8/25/23 39/39/23 38/9/23
f 39/39/9 40/40/9 42/41/9 16/29/9
f 8/25/24 43/42/24 40/40/24 39/39/24
f 43/42/25 44/43/25 41/44/25 40/40/25
f 40/40/9 41/44/9 52/45/9 42/41/9
f 44/43/26 43/42/26 10/26/26
f 43/42/27 8/25/27 10/26/27
f 45/46/27 44/43/27 10/26/27
f 44/43/28 45/46/28 48/47/28 41/44/28
f 45/46/29 46/48/29 49/49/29 48/47/29
f 47/50/26 46/48/26 45/46/26
f 47/50/27 45/46/27 10/26/27
f 48/47/9 49/49/9 51/51/9 50/52/9
f 41/44/9 48/47/9 50/52/9 52/45/9
f 53/53/30 50/52/30 51/51/30
f 50/52/22 14/28/22 52/45/22
f 53/53/22 14/28/22 50/52/22
f 91/54/9 54/55/9 53/53/9 55/56/9
f 54/55/9 141/57/9 61/58/9 53/53/9
f 53/53/22 60/59/22 55/56/22
f 53/53/22 51/51/22 65/60/22
f 53/53/22 65/60/22 56/61/22
f 53/53/22 56/61/22 66/62/22
f 53/53/22 66/62/22 57/63/22
f 53/53/22 57/63/22 67/64/22
f 53/53/22 67/64/22 58/65/22
f 53/53/22 58/65/22 68/66/22
f 53/53/22 68/66/22 59/67/22
f 53/53/22 59/67/22 69/68/22
f 53/53/22 69/68/22 60/59/22
f 61/58/22 62/69/22 53/53/22
f 53/53/22 62/69/22 63/70/22
f 53/53/22 63/70/22 64/71/22
f 53/53/22 64/71/22 14/28/22
f 70/72/9 71/73/9 60/59/9 69/68/9
f 72/74/9 70/72/9 69/68/9 59/67/9
f 73/75/31 74/76/31 71/73/31 70/72/31
f 75/67/32 73/75/32 70/72/32 72/74/32
f 47/50/27 74/76/27 73/75/27
f 47/50/27 73/75/27 75/67/27
f 76/77/33 75/67/33 72/74/33 78/78/33
f 47/50/27 75/67/27 76/77/27
f 77/79/34 76/77/34 78/78/34 79/80/34
f 47/50/27 76/77/27 77/79/27
f 78/78/9 72/74/9 59/67/9 68/66/9
f 79/80/9 78/78/9 68/66/9 58/65/9
f 82/81/35 77/79/35 79/80/35 80/82/35
f 80/82/9 79/80/9 58/65/9 67/64/9
f 83/83/36 82/81/36 80/82/36 81/84/36
f 81/84/9 80/82/9 67/64/9 57/63/9
f 47/50/27 77/79/27 82/81/27
f 47/50/27 82/81/27 83/83/27
f 84/85/37 83/83/37 81/84/37 86/86/37
f 47/50/26 83/83/26 84/85/26
f 85/87/38 84/85/38 86/86/38 87/88/38
f 47/50/27 84/85/27 85/87/27
f 86/86/9 81/84/9 57/63/9 66/62/9
f 87/88/9 86/86/9 66/62/9 56/61/9
f 88/89/9 87/88/9 56/61/9 65/60/9
f 89/90/39 85/87/39 87/88/39 88/89/39
f 49/49/9 88/89/9 65/60/9 51/51/9
f 46/48/40 89/90/40 88/89/40 49/49/40
f 47/50/27 85/87/27 89/90/27
f 47/50/27 89/90/27 46/48/27
f 74/76/41 90/91/41 91/54/41 71/73/41
f 47/50/27 90/91/27 74/76/27
f 90/91/42 47/50/42 54/55/42 91/54/42
f 71/73/9 91/54/9 55/56/9 60/59/9
f 92/92/9 12/27/9 14/28/9 64/71/9
f 93/93/9 92/92/9 64/71/9 63/70/9
f 95/94/43 94/95/43 92/92/43 93/93/43
f 94/95/44 10/26/44 12/27/44 92/92/44
f 47/50/27 94/95/27 95/94/27
f 47/50/27 10/26/27 94/95/27
f 47/50/27 95/94/27 96/96/27
f 96/96/45 95/94/45 93/93/45 100/97/45
f 99/98/27 97/99/27 96/96/27
f 97/99/27 47/50/27 96/96/27
f 98/100/46 96/96/46 100/97/46 101/101/46
f 99/98/27 96/96/27 98/100/27
f 101/101/9 100/97/9 62/69/9 103/102/9
f 100/97/9 93/93/9 63/70/9 62/69/9
f 116/103/47 98/100/47 101/101/47 102/104/47
f 102/104/9 101/101/9 103/102/9 106/105/9
f 108/106/22 103/102/22 104/107/22
f 104/107/22 103/102/22 107/108/22
f 105/109/22 106/105/22 103/102/22
f 105/109/22 103/102/22 108/106/22
f 107/108/22 103/102/22 62/69/22
f 109/110/9 111/111/9 105/109/9 108/106/9
f 110/112/9 109/110/9 108/106/9 104/107/9
f 113/113/48 112/114/48 109/110/48 110/112/48
f 112/114/49 114/115/49 111/111/49 109/110/49
f 112/114/27 113/113/27 98/100/27
f 114/115/27 112/114/27 98/100/27
f 114/115/50 115/116/50 138/117/50 111/111/50
f 115/116/26 114/115/26 116/103/26
f 114/115/27 98/100/27 116/103/27
f 117/118/27 116/103/27 118/119/27
f 117/118/27 115/116/27 116/103/27
f 118/119/51 116/103/51 102/104/51 123/120/51
f 120/121/26 117/118/26 118/119/26
f 121/122/26 119/123/26 118/119/26
f 119/123/26 120/121/26 118/119/26
f 121/122/27 118/119/27 122/124/27
f 122/124/52 118/119/52 123/120/52 125/125/52
f 123/120/9 102/104/9 106/105/9 124/126/9
f 125/125/9 123/120/9 124/126/9 127/127/9
f 139/128/53 122/124/53 125/125/53 126/129/53
f 126/129/9 125/125/9 127/127/9 128/130/9
f 128/130/30 127/127/30 129/131/30
f 129/131/30 127/127/30 124/126/30
f 130/132/9 126/129/9 128/130/9 129/131/9
f 132/133/9 130/132/9 129/131/9 131/134/9
f 129/131/22 124/126/22 131/134/22
f 134/135/9 132/133/9 131/134/9 133/136/9
f 131/134/22 124/126/22 133/136/22
f 136/137/9 134/135/9 133/136/9 135/138/9
f 133/136/22 124/126/22 135/138/22
f 138/117/9 136/137/9 135/138/9 137/139/9
f 135/138/30 124/126/30 106/105/30
f 135/138/22 106/105/22 137/139/22
f 111/111/9 138/117/9 137/139/9 105/109/9
f 137/139/22 106/105/22 105/109/22
f 115/116/54 117/118/54 136/137/54 138/117/54
f 117/118/55 120/121/55 134/135/55 136/137/55
f 120/121/56 119/123/56 132/133/56 134/135/56
f 119/123/57 121/122/57 130/132/57 132/133/57
f 121/122/58 139/128/58 126/129/58 130/132/58
f 139/128/27 121/122/27 122/124/27
f 113/113/27 99/98/27 98/100/27
f 99/98/59 113/113/59 110/112/59 140/140/59
f 140/140/9 110/112/9 104/107/9 107/108/9
f 97/99/60 99/98/60 140/140/60 141/57/60
f 141/57/9 140/140/9 107/108/9 61/58/9
f 47/50/61 97/99/61 141/57/61 54/55/61
f 107/108/30 62/69/30 61/58/30
f 52/45/22 14/28/22 42/41/22
f 42/41/22 14/28/22 16/29/22
