# Blender 4.0.2
# www.blender.org
mtllib cislo5-3.mtl
o Text.002
v -0.102264 -0.015084 -0.167224
v -0.105697 -0.013356 -0.166313
v -0.094700 -0.020556 -0.169111
v -0.089794 -0.016680 -0.170872
v -0.086501 -0.014079 -0.172054
v -0.049258 -0.002366 0.008416
v -0.005124 0.005989 0.146394
v -0.005124 0.005989 0.146394
v 0.003105 0.000035 0.144342
v 0.010808 -0.005537 0.142421
v 0.003105 0.000035 0.144342
v 0.010808 -0.005537 0.142421
v 0.009947 0.005440 0.141886
v 0.130755 -0.010023 0.106547
v -0.003650 0.007181 0.145863
v 0.014539 0.009068 0.140237
v 0.118064 0.015668 0.108517
v -0.002674 0.007970 0.145512
v 0.025043 0.017365 0.136467
v 0.009295 0.017653 0.141198
v 0.029783 0.021110 0.134765
v 0.014717 0.022039 0.139245
v 0.031363 0.022358 0.134198
v 0.016527 0.023503 0.138592
v 0.049583 0.036752 0.127657
v 0.102098 0.039122 0.111637
v 0.031918 0.035954 0.133046
v 0.050445 0.037432 0.127348
v 0.033042 0.036863 0.132641
v 0.078231 0.059383 0.117372
v 0.082973 0.060071 0.115892
v 0.057090 0.056318 0.123975
v 0.078303 0.059440 0.117347
v 0.057470 0.056625 0.123838
v 0.081073 0.061628 0.116352
v 0.076360 0.065493 0.117495
v 0.081073 0.061628 0.116352
v 0.076360 0.065493 0.117495
v 0.082973 0.060071 0.115892
v -0.016553 0.041178 -0.197165
v -0.025732 0.048704 -0.194940
v -0.011849 0.037321 -0.198305
v -0.023415 0.035758 -0.194702
v -0.049311 0.032258 -0.186633
v -0.023592 0.035618 -0.194638
v -0.049869 0.031807 -0.186432
v -0.050340 0.014487 -0.185036
v 0.007276 0.016372 -0.202560
v -0.072161 0.013773 -0.178399
v -0.051301 0.013728 -0.184690
v -0.073453 0.012728 -0.177933
v -0.068667 0.000010 -0.178457
v 0.023242 -0.007082 -0.205680
v -0.087389 0.001454 -0.172911
v -0.070341 -0.001313 -0.177855
v -0.089361 -0.000141 -0.172200
v -0.075366 -0.005283 -0.176051
v -0.095269 -0.004920 -0.170071
v 0.035933 -0.032773 -0.207650
v 0.118064 0.015668 0.108517
v 0.102098 0.039122 0.111637
v 0.130755 -0.010023 0.106547
v 0.140055 -0.037684 0.105743
v 0.140055 -0.037684 0.105743
v 0.145849 -0.067046 0.106120
v 0.045233 -0.060434 -0.208454
v -0.068825 -0.043713 -0.175243
v 0.051027 -0.089796 -0.208077
v -0.056795 -0.061059 -0.177618
v -0.048019 -0.080022 -0.178893
v 0.038027 -0.038309 0.136579
v 0.025997 -0.020963 0.138954
v 0.038027 -0.038309 0.136579
v 0.046803 -0.057272 0.135304
v 0.052228 -0.077550 0.135135
v 0.046803 -0.057272 0.135304
v 0.052228 -0.077550 0.135135
v 0.145849 -0.067046 0.106120
v 0.148021 -0.097841 0.107695
v 0.148021 -0.097841 0.107695
v 0.054206 -0.098841 0.136080
v 0.146494 -0.128505 0.110376
v 0.146494 -0.128505 0.110376
v 0.141395 -0.157516 0.114015
v 0.053126 -0.115283 0.137596
v 0.049657 -0.131086 0.139787
v 0.049657 -0.131086 0.139787
v 0.043965 -0.146096 0.142592
v 0.043965 -0.146096 0.142592
v 0.039131 -0.154872 0.144686
v 0.036219 -0.160160 0.145948
v 0.059035 -0.159586 0.139021
v 0.039131 -0.154872 0.144686
v 0.036219 -0.160160 0.145948
v 0.019270 -0.164226 0.089788
v -0.006456 -0.170399 0.004543
v 0.002821 -0.171488 0.046412
v 0.023353 -0.173899 0.139080
v 0.075292 -0.207389 -0.054908
v -0.033585 -0.187560 -0.049589
v -0.068235 -0.195873 -0.164403
v -0.077870 -0.205812 -0.160776
v -0.079586 -0.207582 -0.160130
v -0.070449 -0.207570 -0.162888
v 0.038099 -0.207427 -0.195657
v 0.027286 -0.230720 -0.190708
v 0.026441 -0.232539 -0.190321
v -0.032821 -0.232978 -0.172405
v 0.012861 -0.253738 -0.184688
v -0.056196 -0.222355 -0.166119
v -0.040313 -0.229572 -0.170390
v 0.110128 -0.212460 0.086980
v 0.121263 -0.209789 0.123876
v 0.118839 -0.213573 0.124882
v 0.118412 -0.214240 0.125059
v 0.118839 -0.213573 0.124882
v 0.091183 -0.201866 0.132380
v 0.110094 -0.209871 0.127253
v 0.121263 -0.209789 0.123876
v 0.108819 -0.209881 0.127638
v 0.108566 -0.209225 0.127667
v 0.107246 -0.209166 0.128061
v 0.105232 -0.207813 0.128571
v 0.103911 -0.207650 0.128958
v 0.095666 -0.203764 0.131164
v 0.095029 -0.203614 0.131346
v 0.091183 -0.201866 0.132380
v 0.053591 -0.184782 0.142488
v 0.132920 -0.184677 0.118540
v 0.028362 -0.173316 0.149272
v 0.026928 -0.172664 0.149657
v 0.026928 -0.172664 0.149657
v 0.023895 -0.173769 0.140873
v 0.023483 -0.173911 0.139711
v -0.061419 -0.203224 -0.099935
v -0.082892 -0.210222 -0.158941
v 0.132920 -0.184677 0.118540
v 0.135126 -0.177610 0.117362
v 0.135126 -0.177610 0.117362
v 0.141395 -0.157516 0.114015
v 0.111402 -0.189840 0.047237
v 0.052243 -0.204034 -0.148790
v 0.039783 -0.202029 -0.196557
v 0.046573 -0.180266 -0.200182
v -0.008364 -0.181647 -0.183502
v -0.058603 -0.182910 -0.168249
v -0.033911 -0.170832 -0.176575
v -0.050857 -0.168846 -0.171605
v -0.049162 -0.164376 -0.172440
v -0.045165 -0.153836 -0.174410
v -0.038851 -0.165965 -0.131821
v -0.041696 -0.138033 -0.176601
v 0.051672 -0.151255 -0.203821
v -0.040616 -0.121592 -0.178117
v 0.053199 -0.120592 -0.206502
v -0.042594 -0.100300 -0.179062
v 0.054206 -0.098841 0.136080
v 0.053126 -0.115283 0.137596
v 0.118412 -0.214240 0.125059
v 0.025997 -0.020963 0.138954
v -0.084014 -0.028288 -0.171776
v -0.033395 0.045135 -0.192369
v -0.027346 0.050027 -0.194548
v 0.072423 0.068721 0.118449
v 0.072423 0.068721 0.118449
v 0.057667 0.056784 0.123767
vn -0.4019 -0.8966 0.1862
vn -0.2882 -0.0692 -0.9551
vn -0.5350 -0.8156 0.2205
vn -0.2882 -0.0691 -0.9551
vn -0.0000 1.0000 -0.0000
vn 0.2882 0.0692 0.9551
vn 0.2882 0.0691 0.9551
vn 0.2883 0.0691 0.9551
vn 0.5824 0.7790 -0.2322
vn -0.2883 -0.0689 -0.9551
vn 0.7772 0.5657 -0.2755
vn 0.8495 0.4418 -0.2884
vn 0.9030 0.3122 -0.2951
vn 0.9378 0.1813 -0.2961
vn -0.7721 -0.5731 0.2745
vn -0.8609 -0.4179 0.2901
vn -0.9220 -0.2491 0.2963
vn -0.8330 0.5100 0.2145
vn -0.7618 0.6209 0.1849
vn -0.3755 -0.9249 0.0591
vn -0.6809 0.7161 0.1536
vn 0.8637 -0.4494 -0.2281
vn 0.7999 -0.5657 -0.2004
vn 0.2883 0.0694 0.9550
vn -0.5924 0.7965 0.1211
vn 0.9113 -0.3262 -0.2514
vn -0.8916 0.3832 0.2413
vn -0.9337 0.2416 0.2643
vn 0.9420 -0.1994 -0.2699
vn 0.9563 -0.0724 -0.2834
vn 0.9550 0.0524 -0.2920
vn -0.9531 -0.0755 0.2931
vn -0.9553 0.0887 0.2819
vn -0.6610 -0.7072 0.2507
vn 0.6873 0.6796 -0.2566
vn -0.5914 0.7939 0.1411
vn -0.3492 -0.9072 0.2347
vt -0.006097 0.000000
vt -0.000083 0.000000
vt 0.009570 0.000000
vt -0.458557 0.000000
vt -0.755757 0.000000
vt -0.279942 0.000000
vt 0.019613 0.000000
vt 0.047427 0.000000
vt 0.023834 0.000000
vt -0.206802 0.000000
vt -4.516252 0.000000
vt -4.634166 0.000000
vt 0.047440 0.000000
vt 0.069511 0.000000
vt -4.405875 0.000000
vt -2.290909 0.000000
vt -4.368353 0.000000
vt -4.602174 0.000000
vt -2.228283 0.000000
vt -4.240200 0.000000
vt -4.574720 0.000000
vt -4.874851 0.000000
vt -5.322896 0.000000
vt -7.819664 0.000000
vt -8.773904 0.000000
vt -7.586177 0.000000
vt -8.503019 0.000000
vt -1.710108 0.000000
vt -5.390296 0.000000
vt -6.628224 0.000000
vt -5.196849 0.000000
vt -6.371609 0.000000
vt -1.687700 0.000000
vt -2.040185 0.000000
vt -3.611819 0.000000
vt -2.023807 0.000000
vt -3.523205 0.000000
vt -1.682635 0.000000
vt -1.670066 0.000000
vt -3.498649 0.000000
vt 0.926196 0.000000
vt 0.935220 0.000000
vt 0.922559 0.000000
vt -1.731927 0.000000
vt -1.703399 0.000000
vt -1.746549 0.000000
vt -1.662139 0.000000
vt -1.691041 0.000000
vt -1.566756 0.000000
vt -1.645814 0.000000
vt -1.420406 0.000000
vt -1.778911 0.000000
vt -1.320585 0.000000
vt -1.147005 0.000000
vt -1.232729 0.000000
vt -1.026181 0.000000
vt -2.228278 0.000000
vt -1.231593 0.000000
vt -1.028560 0.000000
vt -1.043005 0.000000
vt -0.802113 0.000000
vt 0.878052 0.000000
vt 0.833649 0.000000
vt -2.290913 0.000000
vt 0.791352 0.000000
vt -2.092111 0.000000
vt 0.752682 0.000000
vt -2.092109 0.000000
vt 0.718555 0.000000
vt -1.869888 0.000000
vt -1.869890 0.000000
vt 0.221712 0.000000
vt 0.104569 0.000000
vt 0.195119 0.000000
vt 0.130054 0.000000
vt 0.284654 0.000000
vt 0.259676 0.000000
vt -3.322486 0.000000
vt -3.640212 0.000000
vt -2.924927 0.000000
vt 0.339523 0.000000
vt 0.318582 0.000000
vt -2.441185 0.000000
vt 0.686381 0.000000
vt -1.560884 0.000000
vt 0.651770 0.000000
vt -1.142776 0.000000
vt -1.963602 0.000000
vt 0.616358 0.000000
vt -0.692370 0.000000
vt -1.068017 0.000000
vt -1.460576 0.000000
vt 0.484107 0.000000
vt 0.533533 0.000000
vt 0.571472 0.000000
vt -0.577500 0.000000
vt 0.588427 0.000000
vt -0.358507 0.000000
vt -0.327603 0.000000
vt -0.226554 0.000000
vt 0.598644 0.000000
vt 0.293368 0.000000
vt -0.178665 0.000000
vt -0.170008 0.000000
vt -0.163811 0.000000
vt -0.150097 0.000000
vt -0.021699 0.000000
vt 0.616384 0.000000
vt -0.837322 0.000000
vt -0.202358 0.000000
vt 0.087190 0.000000
vt 0.089608 0.000000
vt -0.155544 0.000000
vt -0.619995 0.000000
vt 0.603214 0.000000
vt 0.617041 0.000000
vt 0.326815 0.000000
vt 0.093263 0.000000
vt 0.238962 0.000000
vt 0.135374 0.000000
vt -0.147821 0.000000
vt 0.623096 0.000000
vt 0.624174 0.000000
vt 0.624735 0.000000
vt 0.554107 0.000000
vt -0.278361 0.000000
vt 0.092483 0.000000
vt 0.121436 0.000000
vt 1.008319 0.000000
vt 0.554923 0.000000
vt 1.031249 0.000000
vt 0.249232 0.000000
vt 0.471891 0.000000
vt 0.624590 0.000000
vt 0.451453 0.000000
vt 0.583950 0.000000
vt 0.549385 0.000000
vt 0.424207 0.000000
vt 0.119278 0.000000
vt 0.132386 0.000000
vt 0.343330 0.000000
vt 2.305505 0.000000
vt 0.361897 0.000000
vt 2.301469 0.000000
vt 1.648182 0.000000
vt 1.643165 0.000000
vt 1.174677 0.000000
vt 1.171634 0.000000
vt -0.278366 0.000000
vt -0.628546 0.000000
vt 0.993132 0.000000
vt 0.371318 0.000000
vt 0.360792 0.000000
vt 0.592382 0.000000
vt -0.386090 0.000000
vt -0.692369 0.000000
vt 0.175589 0.000000
vt 0.548872 0.000000
vt -1.142777 0.000000
vt 0.505207 0.000000
vt 0.450020 0.000000
vt -1.560883 0.000000
vt 0.401265 0.000000
vt -1.698383 0.000000
vt 0.942759 0.000000
vt -1.659566 0.000000
s 0
f 2/1/1 1/2/1 6/3/1
f 1/2/2 2/1/2 58/4/2 57/5/2 5/6/2
f 1/2/3 3/7/3 9/8/3 7/9/3 6/3/3
f 3/7/2 1/2/2 4/10/2
f 1/2/4 5/6/4 4/10/4
f 7/9/5 9/8/5 11/11/5 8/12/5
f 3/7/3 161/13/3 10/14/3 9/8/3
f 9/8/5 10/14/5 12/15/5 11/11/5
f 12/15/6 14/16/6 13/17/6 11/11/6
f 11/11/6 13/17/6 15/18/6 8/12/6
f 13/17/6 14/16/6 17/19/6 16/20/6
f 15/18/6 13/17/6 16/20/6 18/21/6
f 16/20/6 17/19/6 19/22/6
f 18/21/6 16/20/6 19/22/6 20/23/6
f 19/22/7 17/19/7 21/24/7
f 20/23/6 19/22/6 21/24/6 22/25/6
f 21/24/6 17/19/6 23/26/6
f 22/25/6 21/24/6 23/26/6 24/27/6
f 23/26/6 17/19/6 26/28/6 25/29/6
f 24/27/6 23/26/6 25/29/6 27/30/6
f 28/31/6 25/29/6 26/28/6
f 29/32/6 27/30/6 25/29/6 28/31/6
f 28/31/6 26/28/6 31/33/6 30/34/6
f 29/32/6 28/31/6 30/34/6 32/35/6
f 33/36/8 30/34/8 31/33/8
f 34/37/6 32/35/6 30/34/6 33/36/6
f 33/36/6 31/33/6 35/38/6
f 34/37/6 33/36/6 35/38/6 36/39/6 166/40/6
f 37/41/5 38/42/5 36/39/5 35/38/5
f 39/43/5 37/41/5 35/38/5 31/33/5
f 40/44/9 41/45/9 38/42/9 37/41/9
f 42/46/9 40/44/9 37/41/9 39/43/9
f 162/47/2 41/45/2 40/44/2 43/48/2 44/49/2
f 43/48/2 40/44/2 42/46/2
f 43/48/10 42/46/10 45/50/10
f 44/49/2 43/48/2 45/50/2 46/51/2
f 45/50/2 42/46/2 48/52/2 47/53/2
f 46/51/2 45/50/2 47/53/2 49/54/2
f 47/53/4 48/52/4 50/55/4
f 49/54/4 47/53/4 50/55/4 51/56/4
f 50/55/4 48/52/4 53/57/4 52/58/4
f 51/56/2 50/55/2 52/58/2 54/59/2
f 55/60/2 52/58/2 53/57/2
f 56/61/2 54/59/2 52/58/2 55/60/2
f 57/5/2 55/60/2 53/57/2
f 58/4/2 56/61/2 55/60/2 57/5/2
f 5/6/2 57/5/2 53/57/2
f 53/57/11 48/52/11 61/62/11 60/63/11
f 59/64/12 53/57/12 60/63/12 62/65/12
f 5/6/2 53/57/2 59/64/2 4/10/2
f 60/63/5 61/62/5 26/28/5 17/19/5
f 62/65/5 60/63/5 17/19/5 14/16/5
f 66/66/13 59/64/13 62/65/13 63/67/13
f 63/67/5 62/65/5 14/16/5 64/68/5
f 65/69/5 63/67/5 64/68/5 78/70/5
f 68/71/14 66/66/14 63/67/14 65/69/14
f 69/72/2 67/73/2 66/66/2
f 67/73/2 59/64/2 66/66/2
f 69/72/2 66/66/2 68/71/2
f 67/73/15 69/72/15 71/74/15 72/75/15
f 69/72/16 70/76/16 74/77/16 71/74/16
f 70/76/2 69/72/2 68/71/2
f 72/75/5 71/74/5 73/78/5 160/79/5
f 71/74/5 74/77/5 76/80/5 73/78/5
f 70/76/17 156/81/17 75/82/17 74/77/17
f 74/77/5 75/82/5 77/83/5 76/80/5
f 77/83/6 78/70/6 76/80/6
f 76/80/6 78/70/6 73/78/6
f 80/84/5 65/69/5 78/70/5 79/85/5
f 77/83/6 79/85/6 78/70/6
f 73/78/6 78/70/6 64/68/6
f 83/86/5 80/84/5 79/85/5 82/87/5
f 81/88/6 82/87/6 79/85/6
f 81/88/6 79/85/6 77/83/6
f 140/89/5 83/86/5 82/87/5 84/90/5
f 86/91/6 84/90/6 82/87/6
f 85/92/6 82/87/6 81/88/6
f 86/91/6 82/87/6 85/92/6
f 158/93/5 87/94/5 86/91/5 85/92/5
f 87/94/5 89/95/5 88/96/5 86/91/5
f 88/96/6 84/90/6 86/91/6
f 89/95/5 93/97/5 90/98/5 88/96/5
f 92/99/6 84/90/6 88/96/6 90/98/6
f 91/100/6 92/99/6 90/98/6
f 93/97/5 94/101/5 91/100/5 90/98/5
f 93/97/18 95/102/18 94/101/18
f 151/103/18 96/104/18 95/102/18 93/97/18 89/95/18
f 97/105/19 98/106/19 133/107/19 132/108/19 94/101/19 95/102/19
f 96/104/19 97/105/19 95/102/19
f 145/109/20 143/110/20 142/111/20 99/112/20 97/105/20 96/104/20 151/103/20 149/113/20 147/114/20
f 146/115/19 101/116/19 100/117/19 97/105/19 96/104/19
f 97/105/19 100/117/19 98/106/19
f 97/105/20 99/112/20 112/118/20 114/119/20 117/120/20 134/121/20 98/106/20
f 101/116/21 102/122/21 100/117/21
f 102/122/21 103/123/21 135/124/21 134/121/21 98/106/21 100/117/21
f 103/123/2 102/122/2 104/125/2
f 102/122/2 101/116/2 105/126/2 104/125/2
f 104/125/2 105/126/2 106/127/2
f 103/123/4 104/125/4 106/127/4 107/128/4
f 106/127/22 105/126/22 142/111/22 99/112/22
f 107/128/22 106/127/22 99/112/22 112/118/22
f 108/129/2 107/128/2 109/130/2
f 108/129/4 111/131/4 107/128/4
f 109/130/23 107/128/23 112/118/23 114/119/23 115/132/23
f 111/131/2 110/133/2 107/128/2
f 136/134/2 103/123/2 107/128/2 110/133/2
f 112/118/22 99/112/22 141/135/22 137/136/22 113/137/22
f 114/119/23 112/118/23 113/137/23
f 114/119/5 113/137/5 119/138/5 116/139/5
f 115/132/5 114/119/5 116/139/5 159/140/5
f 116/139/5 118/141/5 114/119/5
f 118/141/6 116/139/6 119/138/6
f 118/141/7 119/138/7 121/142/7
f 120/143/7 159/140/7 116/139/7 118/141/7
f 120/143/6 118/141/6 121/142/6 122/144/6
f 121/142/7 119/138/7 123/145/7
f 122/144/6 121/142/6 123/145/6 124/146/6
f 123/145/7 119/138/7 125/147/7
f 124/146/7 123/145/7 125/147/7 126/148/7
f 125/147/6 119/138/6 129/149/6 128/150/6 127/151/6
f 126/148/24 125/147/24 127/151/24
f 128/150/6 129/149/6 130/152/6
f 130/152/6 129/149/6 91/100/6 131/153/6
f 94/101/5 132/108/5 131/153/5 91/100/5
f 98/106/21 134/121/21 133/107/21
f 103/123/25 136/134/25 135/124/25
f 137/136/5 139/154/5 138/155/5 129/149/5
f 113/137/5 137/136/5 129/149/5 119/138/5
f 91/100/6 129/149/6 138/155/6 92/99/6
f 92/99/6 138/155/6 84/90/6
f 139/154/5 140/89/5 84/90/5 138/155/5
f 143/110/26 144/156/26 140/89/26 139/154/26 141/135/26 142/111/26
f 141/135/26 139/154/26 137/136/26
f 99/112/22 142/111/22 141/135/22
f 105/126/26 143/110/26 142/111/26
f 145/109/2 144/156/2 143/110/2
f 146/115/4 145/109/4 143/110/4 105/126/4
f 145/109/2 147/114/2 144/156/2
f 146/115/2 148/157/2 147/114/2 145/109/2
f 149/113/2 150/158/2 144/156/2 147/114/2
f 148/157/4 149/113/4 147/114/4
f 149/113/27 148/157/27 151/103/27
f 150/158/27 149/113/27 151/103/27 89/95/27 87/94/27
f 148/157/18 146/115/18 96/104/18 151/103/18
f 150/158/2 153/159/2 144/156/2
f 152/160/28 150/158/28 87/94/28 158/93/28
f 150/158/2 152/160/2 153/159/2
f 144/156/29 153/159/29 83/86/29 140/89/29
f 152/160/2 154/161/2 153/159/2
f 154/161/2 155/162/2 153/159/2
f 153/159/30 155/162/30 80/84/30 83/86/30
f 155/162/31 68/71/31 65/69/31 80/84/31
f 156/81/2 68/71/2 155/162/2
f 154/161/2 156/81/2 155/162/2
f 156/81/2 70/76/2 68/71/2
f 156/81/32 154/161/32 157/163/32 75/82/32
f 154/161/33 152/160/33 158/93/33 157/163/33
f 157/163/5 158/93/5 85/92/5 81/88/5
f 75/82/5 157/163/5 81/88/5 77/83/5
f 101/116/2 146/115/2 105/126/2
f 73/78/6 64/68/6 160/79/6
f 10/14/5 72/75/5 160/79/5 12/15/5
f 160/79/6 64/68/6 14/16/6
f 160/79/6 14/16/6 12/15/6
f 161/13/34 67/73/34 72/75/34 10/14/34
f 67/73/2 161/13/2 59/64/2
f 161/13/2 3/7/2 4/10/2 59/64/2
f 61/62/5 39/43/5 31/33/5 26/28/5
f 48/52/35 42/46/35 39/43/35 61/62/35
f 162/47/2 163/164/2 41/45/2
f 41/45/9 163/164/9 164/165/9 38/42/9
f 38/42/5 164/165/5 165/166/5 36/39/5
f 165/166/6 166/40/6 36/39/6
f 2/1/36 6/3/36 7/9/36 8/12/36 15/18/36 18/21/36 20/23/36 22/25/36 24/27/36 27/30/36 29/32/36 32/35/36 34/37/36 166/40/36 165/166/36 164/165/36 163/164/36 162/47/36 44/49/36 46/51/36 49/54/36 51/56/36 54/59/36 56/61/36 58/4/36
f 126/148/37 127/151/37 128/150/37 130/152/37 131/153/37 132/108/37 133/107/37 134/121/37 135/124/37 136/134/37 110/133/37 111/131/37 108/129/37 109/130/37 115/132/37 159/140/37 120/143/37 122/144/37 124/146/37
