# Blender 4.0.2
# www.blender.org
mtllib cislo5-2.mtl
o Text.003
v -0.270688 0.065440 -0.117527
v -0.236084 0.071918 -0.128439
v -0.034017 0.120395 -0.192931
v -0.059112 0.135530 -0.186454
v -0.087019 0.147356 -0.178888
v -0.117622 0.155605 -0.170249
v -0.186453 0.160302 -0.149817
v -0.272880 0.279075 -0.132334
v -0.175866 0.088190 0.196670
v -0.204782 0.277532 -0.152774
v -0.187651 0.277143 -0.157915
v -0.092526 0.270272 0.158335
v -0.091631 0.183052 0.164380
v -0.092526 0.270272 0.158335
v -0.091631 0.183052 0.164380
v -0.119098 0.270874 0.166310
v -0.175866 0.088190 0.196670
v -0.177754 0.272204 0.183916
v -0.177754 0.272204 0.183916
v -0.141262 0.094669 0.185758
v 0.060805 0.143145 0.121266
v 0.035710 0.158280 0.127743
v 0.007803 0.170106 0.135309
v -0.022800 0.178355 0.143948
v -0.022800 0.178355 0.143948
v -0.055983 0.182760 0.153643
v -0.055983 0.182760 0.153643
v -0.150805 0.160010 -0.160554
v 0.007803 0.170106 0.135309
v 0.035710 0.158280 0.127743
v 0.060805 0.143145 0.121266
v 0.072423 0.133619 0.118449
v 0.072423 0.133619 0.118449
v -0.027346 0.114926 -0.194548
v -0.033395 0.110033 -0.192369
v -0.065822 0.094926 -0.181488
v -0.049311 0.097157 -0.186633
v -0.049869 0.096706 -0.186432
v -0.067484 0.094151 -0.180931
v -0.072161 0.078672 -0.178399
v -0.102867 0.077667 -0.169059
v -0.073453 0.077626 -0.177933
v -0.106120 0.076152 -0.167968
v -0.087389 0.066353 -0.172911
v -0.121504 0.068985 -0.162806
v -0.089361 0.064758 -0.172200
v -0.125762 0.067002 -0.161377
v -0.095269 0.059979 -0.170071
v -0.123481 0.060493 -0.161594
v -0.105697 0.051542 -0.166313
v -0.049258 0.062532 0.008416
v -0.007443 0.072564 0.146973
v -0.005124 0.070887 0.146394
v -0.005124 0.070887 0.146394
v -0.007443 0.072564 0.146973
v -0.003650 0.072079 0.145863
v -0.002674 0.072869 0.145512
v 0.009295 0.082551 0.141198
v -0.024986 0.083177 0.151499
v 0.014717 0.086937 0.139245
v -0.013218 0.088659 0.147550
v 0.016527 0.088401 0.138592
v -0.009466 0.090407 0.146292
v 0.031918 0.100853 0.133046
v 0.010922 0.099905 0.139451
v 0.033042 0.101761 0.132641
v 0.013537 0.101123 0.138573
v 0.057090 0.121216 0.123975
v 0.056474 0.121126 0.124167
v 0.057470 0.121523 0.123838
v 0.057265 0.121495 0.123902
v 0.057667 0.121682 0.123767
v -0.109144 0.097111 0.175888
v -0.109144 0.097111 0.175888
v -0.079606 0.095819 0.167067
v -0.079606 0.095819 0.167067
v -0.052746 0.091096 0.159303
v -0.052746 0.091096 0.159303
v -0.028659 0.083244 0.152603
v -0.028659 0.083244 0.152603
v -0.026825 0.082320 0.152116
v -0.026825 0.082320 0.152116
v -0.046696 0.078916 0.092837
v -0.133041 0.063610 -0.158935
v -0.147568 0.068346 -0.154894
v -0.174428 0.073069 -0.147130
v -0.203965 0.074361 -0.138309
v -0.141262 0.094669 0.185758
vn 0.1883 -0.9820 0.0143
vn -0.2882 -0.0692 -0.9551
vn -0.9575 0.0102 0.2882
vn 0.9575 -0.0102 -0.2882
vn -0.0000 1.0000 -0.0000
vn 0.2882 0.0692 0.9551
vn 0.2882 0.0691 0.9551
vn 0.1015 0.9896 -0.1023
vn -0.0125 0.9976 -0.0685
vn 0.2216 0.9655 -0.1368
vn 0.3448 0.9230 -0.1709
vn 0.4667 0.8608 -0.2032
vn 0.5824 0.7790 -0.2322
vn -0.2882 -0.0691 -0.9551
vn -0.4019 -0.8966 0.1862
vn -0.5350 -0.8156 0.2205
vn 0.2882 0.0693 0.9551
vn 0.2882 0.0689 0.9551
vn 0.3984 -0.9136 -0.0811
vn -0.2685 -0.9515 0.1499
vn -0.1401 -0.9836 0.1135
vn -0.0202 -0.9967 0.0783
vn 0.0895 -0.9950 0.0450
vn 0.0268 0.9995 0.0137
vn 0.5914 -0.7939 -0.1411
vt -0.431747 0.000000
vt -0.670379 0.000000
vt -0.109862 0.000000
vt -0.041869 0.000000
vt -1.677652 0.000000
vt -1.536325 0.000000
vt -1.744876 0.000000
vt -1.858059 0.000000
vt -2.821781 0.000000
vt -2.475545 0.000000
vt -2.936774 0.000000
vt -0.156528 0.000000
vt -0.006310 0.000000
vt 0.994300 0.000000
vt 1.026003 0.000000
vt -2.907622 0.000000
vt -2.821782 0.000000
vt -3.890659 0.000000
vt -3.270575 0.000000
vt -1.999205 0.000000
vt -17.826168 0.000000
vt -1.628587 0.000000
vt -1.536326 0.000000
vt -1.744880 0.000000
vt -1.856454 0.000000
vt 1.064014 0.000000
vt 1.085777 0.000000
vt 1.019608 0.000000
vt 1.036648 0.000000
vt 1.019592 0.000000
vt 1.003469 0.000000
vt 0.965004 0.000000
vt 0.942759 0.000000
vt -1.659566 0.000000
vt -1.698383 0.000000
vt -1.662139 0.000000
vt -1.487515 0.000000
vt -1.566756 0.000000
vt -1.420406 0.000000
vt -1.269296 0.000000
vt -1.147005 0.000000
vt -0.902744 0.000000
vt -1.026181 0.000000
vt -0.721594 0.000000
vt -1.028560 0.000000
vt -0.658610 0.000000
vt -0.341083 0.000000
vt -0.802113 0.000000
vt -0.037256 0.000000
vt -0.048228 0.000000
vt -0.458557 0.000000
vt -0.006097 0.000000
vt 0.009570 0.000000
vt 0.017185 0.000000
vt -0.021501 0.000000
vt -0.027463 0.000000
vt 0.023834 0.000000
vt -4.634166 0.000000
vt -4.667396 0.000000
vt -4.602174 0.000000
vt -4.574720 0.000000
vt -5.322896 0.000000
vt -6.298241 0.000000
vt -6.252679 0.000000
vt -8.773904 0.000000
vt -10.543180 0.000000
vt -8.503019 0.000000
vt -10.109315 0.000000
vt -6.628224 0.000000
vt -8.099669 0.000000
vt -7.688243 0.000000
vt -6.371609 0.000000
vt -3.611819 0.000000
vt -3.657649 0.000000
vt -3.537915 0.000000
vt -3.523205 0.000000
vt -3.498649 0.000000
vt -15.969578 0.000000
vt -0.098101 0.000000
vt -0.081286 0.000000
vt -14.443774 0.000000
vt -0.057571 0.000000
vt -13.046757 0.000000
vt -0.025163 0.000000
vt -6.402750 0.000000
vt -0.064899 0.000000
vt -0.084685 0.000000
vt -0.098530 0.000000
s 0
f 1/1/1 2/2/1 88/3/1 9/4/1
f 1/1/2 3/5/2 2/2/2
f 1/1/2 4/6/2 3/5/2
f 1/1/2 5/7/2 4/6/2
f 1/1/2 6/8/2 5/7/2
f 1/1/2 7/9/2 6/8/2
f 1/1/2 10/10/2 11/11/2 7/9/2
f 1/1/2 8/12/2 10/10/2
f 8/12/3 1/1/3 9/4/3 19/13/3
f 7/9/4 11/11/4 12/14/4 13/15/4
f 13/15/5 12/14/5 14/16/5 15/17/5
f 17/18/6 15/17/6 14/16/6 16/19/6
f 17/18/6 16/19/6 18/20/6
f 19/13/5 9/4/5 17/18/5 18/20/5
f 9/4/5 88/3/5 20/21/5 17/18/5
f 17/18/7 20/21/7 21/22/7
f 17/18/6 21/22/6 22/23/6
f 17/18/6 22/23/6 23/24/6
f 17/18/6 23/24/6 24/25/6
f 17/18/6 24/25/6 15/17/6
f 25/26/5 27/27/5 26/28/5 24/25/5
f 29/29/5 25/26/5 24/25/5 23/24/5
f 15/17/6 24/25/6 26/28/6
f 27/27/5 13/15/5 15/17/5 26/28/5
f 6/8/8 28/30/8 27/27/8 25/26/8
f 28/30/9 7/9/9 13/15/9 27/27/9
f 7/9/2 28/30/2 6/8/2
f 5/7/10 6/8/10 25/26/10 29/29/10
f 30/31/5 29/29/5 23/24/5 22/23/5
f 4/6/11 5/7/11 29/29/11 30/31/11
f 31/32/5 30/31/5 22/23/5 21/22/5
f 3/5/12 4/6/12 30/31/12 31/32/12
f 32/33/5 31/32/5 21/22/5 33/34/5
f 34/35/13 3/5/13 31/32/13 32/33/13
f 2/2/2 3/5/2 34/35/2 35/36/2 36/37/2
f 36/37/2 35/36/2 37/38/2
f 36/37/2 37/38/2 38/39/2 39/40/2
f 39/40/2 38/39/2 40/41/2 41/42/2
f 41/42/14 40/41/14 42/43/14 43/44/14
f 43/44/14 42/43/14 44/45/14 45/46/14
f 47/47/2 45/46/2 44/45/2 46/48/2
f 49/49/2 84/50/2 47/47/2 46/48/2 48/51/2
f 50/52/2 49/49/2 48/51/2
f 49/49/15 50/52/15 51/53/15 52/54/15 82/55/15 83/56/15
f 51/53/16 53/57/16 52/54/16
f 52/54/5 53/57/5 54/58/5 55/59/5
f 54/58/7 56/60/7 55/59/7
f 55/59/6 56/60/6 57/61/6
f 55/59/6 57/61/6 58/62/6 59/63/6 81/64/6
f 59/63/6 58/62/6 60/65/6 61/66/6
f 61/66/6 60/65/6 62/67/6 63/68/6
f 63/68/6 62/67/6 64/69/6 65/70/6
f 67/71/6 65/70/6 64/69/6 66/72/6
f 67/71/6 66/72/6 68/73/6 69/74/6
f 71/75/17 69/74/17 68/73/17 70/76/17
f 71/75/18 70/76/18 72/77/18
f 20/21/6 71/75/6 72/77/6 33/34/6 21/22/6
f 20/21/6 73/78/6 69/74/6 71/75/6
f 73/78/6 67/71/6 69/74/6
f 88/3/5 74/79/5 73/78/5 20/21/5
f 74/79/5 76/80/5 75/81/5 73/78/5
f 73/78/7 75/81/7 65/70/7 67/71/7
f 76/80/5 78/82/5 77/83/5 75/81/5
f 77/83/6 61/66/6 63/68/6 75/81/6
f 75/81/6 63/68/6 65/70/6
f 78/82/5 80/84/5 79/85/5 77/83/5
f 79/85/7 59/63/7 61/66/7 77/83/7
f 80/84/5 82/55/5 81/64/5 79/85/5
f 81/64/6 59/63/6 79/85/6
f 82/55/5 52/54/5 55/59/5 81/64/5
f 81/64/5 82/55/5 59/63/5
f 83/56/15 82/55/15 80/84/15
f 47/47/19 45/46/19 43/44/19 41/42/19 39/40/19 82/55/19 83/56/19 84/50/19
f 84/50/20 49/49/20 83/56/20
f 85/86/20 84/50/20 83/56/20 80/84/20 78/82/20
f 84/50/14 85/86/14 47/47/14
f 85/86/2 86/87/2 45/46/2 47/47/2
f 86/87/21 85/86/21 78/82/21 76/80/21
f 87/88/14 41/42/14 43/44/14 86/87/14
f 87/88/22 86/87/22 76/80/22 74/79/22
f 86/87/2 43/44/2 45/46/2
f 2/2/14 36/37/14 39/40/14 87/88/14
f 2/2/23 87/88/23 74/79/23 88/3/23
f 87/88/2 39/40/2 41/42/2
f 8/12/24 19/13/24 18/20/24 16/19/24 14/16/24 12/14/24 11/11/24 10/10/24
f 33/34/25 72/77/25 70/76/25 68/73/25 66/72/25 64/69/25 62/67/25 60/65/25 58/62/25 57/61/25 56/60/25 54/58/25 53/57/25 51/53/25 50/52/25 48/51/25 46/48/25 44/45/25 42/43/25 40/41/25 38/39/25 37/38/25 35/36/25 34/35/25 32/33/25
